<svg width="24" height="24" viewBox="0 0 24 24" fill="none" xmlns="http://www.w3.org/2000/svg">
<path d="M1.07425 15.25C1.07028 15.6025 1.15942 15.9559 1.34167 16.2719L3.78009 20.4993C4.13724 21.1185 4.79772 21.5 5.51254 21.5H18.4874C19.2023 21.5 19.8627 21.1185 20.2199 20.4993L22.6583 16.2719C22.8406 15.9559 22.9297 15.6025 22.9257 15.25H1.07425Z" fill="#4285F4"/>
<path d="M19.4958 21.2272L8.55795 2.28226C8.86263 2.10057 9.21533 2 9.58235 2H14.4177C15.1322 2 15.7924 2.3812 16.1497 3L22.6579 14.2726C23.015 14.8911 23.0152 15.6532 22.6583 16.2719L20.2199 20.4993C20.0429 20.8061 19.7915 21.0546 19.4958 21.2272Z" fill="#FBBC04"/>
<path d="M15.4421 2.28227C15.1374 2.10058 14.7847 2 14.4177 2H9.58234C8.86781 2 8.20756 2.3812 7.85029 3L1.34208 14.2726C0.984956 14.8911 0.984801 15.6532 1.34167 16.2719L3.78009 20.4993C3.95707 20.8061 4.20854 21.0546 4.50419 21.2272L15.4421 2.28227Z" fill="#34A853"/>
<path d="M22.9257 15.25C22.9297 15.6025 22.8406 15.9559 22.6583 16.2719L20.2199 20.4993C20.0429 20.8061 19.7915 21.0546 19.4958 21.2272L16.0449 15.25H22.9257Z" fill="#EA4335"/>
<path d="M15.4421 2.28227C15.1374 2.10058 14.7847 2 14.4177 2H9.58235C9.21533 2 8.86263 2.10057 8.55795 2.28226L12 8.24407L15.4421 2.28227Z" fill="#188038"/>
<path d="M1.07425 15.25C1.07028 15.6025 1.15942 15.9559 1.34167 16.2719L3.78009 20.4993C3.95707 20.8061 4.20854 21.0546 4.50419 21.2272L7.95513 15.25H1.07425Z" fill="#1967D2"/>
</svg>
