<svg width="24" height="24" viewBox="0 0 24 24" fill="none" xmlns="http://www.w3.org/2000/svg">
<path d="M5.5 1C4.67157 1 4 1.67157 4 2.5V21.5C4 22.3284 4.67157 23 5.5 23H18.5C19.3284 23 20 22.3284 20 21.5V7L14 1H5.5Z" fill="#6B3FB9"/>
<path d="M5.5 23C4.67157 23 4 22.3284 4 21.5V21.25C4 22.0784 4.67157 22.75 5.5 22.75H18.5C19.3284 22.75 20 22.0784 20 21.25V21.5C20 22.3284 19.3284 23 18.5 23H5.5Z" fill="#6439B5"/>
<path d="M5.5 1C4.67157 1 4 1.67157 4 2.5V2.75C4 1.92157 4.67157 1.25 5.5 1.25H14.25L14 1H5.5Z" fill="#815BC3"/>
<path d="M20 12.125V7L19.125 6.125H14.9053C14.5712 6.125 14.4039 6.52893 14.6402 6.76517L20 12.125Z" fill="url(#paint0_linear_4_909)"/>
<path d="M14 1L20 7H15.5C14.6716 7 14 6.32843 14 5.5V1Z" fill="#B7A2DD"/>
<path d="M8.75 13.25C9.16421 13.25 9.5 12.9142 9.5 12.5C9.5 12.0858 9.16421 11.75 8.75 11.75C8.33579 11.75 8 12.0858 8 12.5C8 12.9142 8.33579 13.25 8.75 13.25Z" fill="white"/>
<path d="M16.25 12H10.75V13H16.25V12Z" fill="white"/>
<path d="M16.25 14.5H10.75V15.5H16.25V14.5Z" fill="white"/>
<path d="M10.75 17H16.25V18H10.75V17Z" fill="white"/>
<path d="M9.5 15C9.5 15.4142 9.16421 15.75 8.75 15.75C8.33579 15.75 8 15.4142 8 15C8 14.5858 8.33579 14.25 8.75 14.25C9.16421 14.25 9.5 14.5858 9.5 15Z" fill="white"/>
<path d="M8.75 18.25C9.16421 18.25 9.5 17.9142 9.5 17.5C9.5 17.0858 9.16421 16.75 8.75 16.75C8.33579 16.75 8 17.0858 8 17.5C8 17.9142 8.33579 18.25 8.75 18.25Z" fill="white"/>
<defs>
<linearGradient id="paint0_linear_4_909" x1="17.2648" y1="12.125" x2="17.2648" y2="6" gradientUnits="userSpaceOnUse">
<stop stop-color="#6B3FB9"/>
<stop offset="1" stop-color="#5B3DA3"/>
</linearGradient>
</defs>
</svg>
